# xmcd
#
# Track frame offsets: 
#        150
#        16834
#        33637
#        46101
#        68352
#        86327
#
# Disc length: 1627 seconds
#
# Revision: 0
# Processed by: cddbd v1.5.2PL0 Copyright (c) Steve Scherf et al.
# Submitted via: ExactAudioCopyFreeDBPlugin 1.0
#
DISCID=38065906
DTITLE=Stephanie Neigel - Stephanie Neigel
DYEAR=1900
DGENRE=Pop
TTITLE0=Elements
TTITLE1=Anything but love
TTITLE2=Leave it behind
TTITLE3=Cold hearts
TTITLE4=This is where I wanna be
TTITLE5=I just wanna live
EXTD=
EXTT0=
EXTT1=
EXTT2=
EXTT3=
EXTT4=
EXTT5=
PLAYORDER=
